<?xml version="1.0" standalone="no"?>
<!DOCTYPE svg PUBLIC "-//W3C//DTD SVG 20010904//EN"
 "http://www.w3.org/TR/2001/REC-SVG-20010904/DTD/svg10.dtd">
<svg version="1.0" xmlns="http://www.w3.org/2000/svg"
 width="870.000000pt" height="797.000000pt" viewBox="0 0 870.000000 797.000000"
 preserveAspectRatio="xMidYMid meet">

<g transform="translate(0.000000,797.000000) scale(0.100000,-0.100000)"
fill="#FFFFFF" stroke="none">
<path d="M5313 7319 c-17 -5 -50 -30 -72 -55 -33 -37 -41 -55 -47 -102 -5 -43
2 -1892 11 -2707 2 -193 22 -242 118 -293 l52 -27 635 4 c349 2 817 0 1040 -4
l405 -7 45 -47 c137 -143 212 -377 211 -657 0 -203 -27 -320 -117 -510 -42
-91 -64 -124 -116 -176 -173 -174 -328 -170 -455 12 -29 41 -52 79 -53 83 -1
21 -142 221 -221 313 -148 172 -239 237 -387 275 -72 19 -112 20 -597 20 -286
1 -533 -3 -550 -7 -66 -16 -82 -31 -105 -99 -21 -62 -21 -67 -6 -113 24 -70
69 -110 147 -129 55 -13 123 -14 470 -9 454 6 548 0 615 -39 99 -58 210 -197
301 -379 130 -260 214 -343 409 -407 88 -29 112 -33 209 -33 123 0 182 17 306
86 165 93 388 384 457 598 80 248 99 481 61 745 -50 337 -215 646 -422 787
-42 28 -56 44 -53 56 3 9 16 62 28 117 18 84 22 132 22 295 0 115 -5 226 -13
270 -31 183 -92 394 -150 522 -11 24 -29 65 -40 91 -34 80 -154 277 -237 387
-249 335 -630 603 -994 698 -115 31 -154 35 -215 22 -122 -25 -179 -135 -125
-240 30 -58 82 -88 192 -110 270 -54 488 -179 709 -407 240 -246 420 -584 489
-918 30 -143 37 -371 16 -500 -18 -109 -42 -193 -60 -213 -10 -10 -183 -14
-828 -19 l-815 -6 -6 249 c-11 394 -9 510 7 523 22 18 164 25 241 12 102 -18
122 -31 140 -95 28 -97 88 -147 178 -149 73 -1 113 24 150 93 26 50 28 62 25
130 -8 141 -95 256 -251 330 -103 50 -196 64 -369 57 l-128 -6 0 763 c0 661
-2 769 -15 807 -36 102 -134 149 -242 118z"/>
<path d="M3675 7300 c-305 -18 -669 -98 -934 -205 -438 -177 -751 -375 -1027
-650 -161 -160 -270 -305 -372 -495 -100 -186 -141 -314 -147 -459 -4 -89 -6
-96 -41 -145 -273 -382 -419 -732 -479 -1151 -26 -177 -23 -496 5 -675 55
-355 186 -706 361 -966 278 -414 551 -666 959 -881 125 -66 287 -136 341 -148
28 -6 137 -50 146 -59 2 -2 12 -36 22 -77 37 -144 126 -315 224 -431 89 -106
248 -215 371 -254 154 -49 260 -21 307 81 52 112 -17 232 -144 251 -66 11
-132 49 -212 125 -79 75 -135 150 -135 181 0 17 10 17 153 12 231 -10 555 28
865 102 167 40 192 51 233 107 l31 42 -6 335 c-4 184 -11 592 -16 905 -21
1297 -20 1256 -42 1302 -26 56 -97 118 -151 132 -30 7 -236 8 -737 0 -668 -10
-697 -11 -737 -31 -70 -34 -121 -135 -104 -208 18 -80 62 -131 129 -150 34 -9
712 0 1103 15 131 5 147 4 161 -12 13 -15 17 -74 22 -393 8 -472 16 -919 25
-1355 5 -249 4 -343 -4 -353 -13 -15 -162 -46 -297 -63 -130 -16 -467 -5 -635
20 -354 55 -547 120 -828 279 -251 143 -459 313 -608 499 -114 142 -273 413
-338 576 -57 142 -114 342 -133 467 -29 195 -25 434 10 620 23 121 98 378 146
495 177 442 578 861 1045 1094 231 116 448 188 630 211 43 6 85 12 94 15 14 5
16 -32 23 -382 9 -503 8 -496 62 -549 33 -33 52 -44 89 -50 93 -13 182 40 204
124 8 30 11 194 9 555 -3 502 -3 513 -25 552 -30 57 -61 82 -128 105 -242 83
-898 -103 -1323 -377 -77 -50 -102 -61 -102 -47 0 20 80 115 174 208 397 390
863 634 1426 746 174 35 420 52 635 45 211 -6 236 -2 287 52 52 55 62 127 27
200 -11 23 -33 51 -47 61 -70 49 -284 69 -567 52z"/>
<path d="M4489 6940 c-42 -12 -84 -48 -109 -93 l-23 -41 12 -1950 c7 -1073 16
-2001 20 -2062 7 -103 10 -114 36 -145 34 -42 79 -73 125 -87 34 -11 781 -32
1115 -32 192 0 211 7 252 96 31 68 27 118 -12 170 -53 69 -49 68 -365 75 -157
4 -402 10 -546 14 l-261 8 -7 351 c-3 193 -9 1067 -12 1941 -6 1746 -2 1651
-67 1713 -50 48 -97 61 -158 42z"/>
<path d="M1750 4018 c-75 -21 -139 -116 -161 -242 -15 -87 -7 -280 16 -366 60
-229 236 -447 465 -573 132 -73 339 -134 534 -158 178 -21 489 2 627 47 53 17
91 53 113 106 22 51 20 85 -7 138 -44 87 -122 106 -315 74 -174 -29 -449 -6
-631 51 -202 65 -363 223 -422 418 -23 74 -22 103 8 271 12 71 13 95 3 125
-31 96 -123 139 -230 109z"/>
<path d="M5313 2130 c-48 -11 -102 -57 -124 -104 -17 -37 -19 -70 -18 -366 0
-179 4 -413 8 -520 13 -304 37 -341 244 -379 55 -10 456 -6 1677 17 377 7 386
8 433 31 30 14 58 38 74 62 22 34 25 47 21 103 -5 82 -42 140 -107 169 -43 19
-52 19 -600 3 -1078 -31 -1354 -37 -1363 -28 -5 5 -12 206 -16 448 l-8 439
-24 44 c-37 65 -118 98 -197 81z"/>
</g>
</svg>
