<?xml version="1.0" encoding="UTF-8"?>
<svg id="Capa_1" xmlns="http://www.w3.org/2000/svg" viewBox="200 150 650 750" xmlns:xlink="http://www.w3.org/1999/xlink">
  <defs>
    <style>
      .cls-1, .cls-2 {
        fill: #fff;
      }

      .cls-3 {
        letter-spacing: .13em;
      }

      .cls-4 {
        fill: none;
        stroke: #fff;
        stroke-linejoin: round;
        stroke-width: 23px;
      }

      .cls-2 {
        font-family: NewestShape-Bold, 'Newest Shape';
        font-size: 79.12px;
        font-weight: 700;
      }

      .cls-5 {
        letter-spacing: .11em;
      }

      .cls-6 {
        letter-spacing: .15em;
      }

      .cls-7 {
        letter-spacing: .15em;
      }
    </style>
  </defs>
  <g>
    <path class="cls-1" d="M450.45,663.84v23.9c-19.55-4.27-33.27-16.59-39.79-35.79-2.18-6.42-3.17-12.57-3.59-17.48-.5-5.85-.2-9.96-.13-10.72l11.46,1,11.46.94c-.01.07-.39,5.34.83,12.05.43,2.34,1.05,4.86,1.95,7.4,3.33,9.36,9.19,15.52,17.81,18.7Z"/>
    <path class="cls-1" d="M506.45,225.89v23.02c-75.79-3.44-118.36,24.95-137.31,42.67-9.24,8.63-16.79,18.25-22.29,28.15-6.83,12.26-10.52,24.94-10.41,36.71l-23,.22c-.01-1.44.01-2.88.09-4.34,1.24-26.44,15.92-55.12,39.9-77.54,36.66-34.27,90.68-51.45,153.02-48.89Z"/>
    <polygon class="cls-1" points="651.45 555.98 548.95 555.98 548.95 264 571.95 264 571.95 532.98 651.45 532.98 651.45 555.98"/>
    <polygon class="cls-1" points="763.89 654.5 600.95 654.5 600.95 574 623.95 574 623.95 631.5 763.89 631.5 763.89 654.5"/>
    <path class="cls-1" d="M768.79,431.83h-167.84v-205.83h23v182.83h126.44c1.79-11.76,3.73-34.12-1.86-58.16-10.61-45.65-42.62-76.13-95.13-90.59l6.11-22.17c76.78,21.14,103.09,70.65,111.64,108.47,9.12,40.34.27,75.37-.11,76.84l-2.23,8.61Z"/>
    <path class="cls-1" d="M742.45,569.5c-23.52,0-35.84-21.27-45.73-38.36-7.33-12.67-14.26-24.64-22.27-24.64h-74v-23h74c21.27,0,32.38,19.19,42.18,36.11,9.4,16.24,16.28,26.89,25.82,26.89,27.65,0,36.18-31.63,38.13-41.33,5.82-28.85-2-64.51-25.14-74.24l8.91-21.2c35.29,14.83,46.32,62.58,38.78,99.99-7.43,36.88-30.69,59.78-60.68,59.78Z"/>
    <path class="cls-1" d="M522.95,437.69v191.6l-9.08,1.95c-23.61,5.08-44.88,7.27-63.98,7.27-6.66,0-13.06-.27-19.2-.77-8.33-.68-16.2-1.79-23.62-3.27-51.18-10.17-81.2-37.48-96.99-57.62-40.56-51.75-46.96-129.36-15.91-193.13,5.54-11.39,12.03-21.88,19.36-31.4,9.7-12.6,20.88-23.51,33.32-32.59,28.64-20.94,63.99-32.23,103.36-32.23h11.5v87.5h-23v-64.12c-55.02,3.62-99.76,33.38-123.86,82.9-27.28,56.04-21.92,123.91,13.34,168.88,35.35,45.11,96.12,61.97,171.76,47.92v-149.89h-90.5v-23h113.5Z"/>
    <path class="cls-1" d="M362.62,490h-27.34c0,49.17,40,89.17,89.17,89.17v-27.34c-34.09,0-61.83-27.74-61.83-61.83Z"/>
    <polyline class="cls-4" points="615.08 329.66 665.75 329.66 665.75 357.96"/>
    <circle class="cls-1" cx="559.95" cy="264.5" r="20.5"/>
    <circle class="cls-1" cx="763.95" cy="642.5" r="20.5"/>
    <circle class="cls-1" cx="495.95" cy="237.5" r="20.5"/>
    <circle class="cls-1" cx="664.95" cy="251.5" r="20.5"/>
    <circle class="cls-1" cx="665.95" cy="365.5" r="20.5"/>
    <circle class="cls-1" cx="408.95" cy="448.5" r="20.5"/>
  </g>
</svg>
